<svg width="1007" height="211" viewBox="0 0 1007 211" fill="none" xmlns="http://www.w3.org/2000/svg">
<path d="M57.1274 206L0.679375 4.39999H42.4394L81.0314 153.872L123.079 4.39999H157.063L199.399 153.872L237.991 4.39999H279.751L223.303 206H178.087L140.071 72.944L102.343 206H57.1274ZM463.43 179.792C443.078 199.952 418.31 210.032 389.126 210.032C359.942 210.032 335.174 199.952 314.822 179.792C294.662 159.44 284.582 134.576 284.582 105.2C284.582 75.824 294.662 51.056 314.822 30.896C335.174 10.544 359.942 0.367987 389.126 0.367987C418.31 0.367987 443.078 10.544 463.43 30.896C483.782 51.056 493.958 75.824 493.958 105.2C493.958 134.576 483.782 159.44 463.43 179.792ZM342.758 152.72C355.238 165.008 370.694 171.152 389.126 171.152C407.558 171.152 423.014 165.008 435.494 152.72C447.974 140.24 454.214 124.4 454.214 105.2C454.214 86 447.974 70.16 435.494 57.68C423.014 45.2 407.558 38.96 389.126 38.96C370.694 38.96 355.238 45.2 342.758 57.68C330.278 70.16 324.038 86 324.038 105.2C324.038 124.4 330.278 140.24 342.758 152.72ZM632.484 206L591.876 136.016H561.636V206H521.892V4.39999H602.532C621.156 4.39999 636.996 10.928 650.052 23.984C663.108 37.04 669.636 52.784 669.636 71.216C669.636 83.696 666.084 95.312 658.98 106.064C651.876 116.624 642.468 124.592 630.756 129.968L675.396 206H632.484ZM561.636 41.552V101.168H602.532C610.02 101.168 616.452 98.288 621.828 92.528C627.204 86.576 629.892 79.472 629.892 71.216C629.892 62.96 627.204 55.952 621.828 50.192C616.452 44.432 610.02 41.552 602.532 41.552H561.636ZM856.334 206H810.542L738.542 111.536V206H698.798V4.39999H738.542V93.392L807.662 4.39999H853.454L778.862 102.32L856.334 206ZM933.286 210.032C913.318 210.032 896.518 205.616 882.886 196.784C869.254 187.76 859.654 175.568 854.086 160.208L888.07 140.336C895.942 160.88 911.398 171.152 934.438 171.152C945.574 171.152 953.734 169.136 958.918 165.104C964.102 161.072 966.694 155.984 966.694 149.84C966.694 142.736 963.526 137.264 957.19 133.424C950.854 129.392 939.526 125.072 923.206 120.464C914.182 117.776 906.502 115.088 900.166 112.4C894.022 109.712 887.782 106.16 881.446 101.744C875.302 97.136 870.598 91.376 867.334 84.464C864.07 77.552 862.438 69.488 862.438 60.272C862.438 42.032 868.87 27.536 881.734 16.784C894.79 5.83999 910.438 0.367987 928.678 0.367987C944.998 0.367987 959.302 4.39999 971.59 12.464C984.07 20.336 993.766 31.376 1000.68 45.584L967.27 64.88C959.206 47.6 946.342 38.96 928.678 38.96C920.422 38.96 913.894 40.88 909.094 44.72C904.486 48.368 902.182 53.168 902.182 59.12C902.182 65.456 904.774 70.64 909.958 74.672C915.334 78.512 925.51 82.736 940.486 87.344C946.63 89.264 951.238 90.8 954.31 91.952C957.574 92.912 961.894 94.544 967.27 96.848C972.838 98.96 977.062 100.976 979.942 102.896C983.014 104.816 986.47 107.408 990.31 110.672C994.15 113.936 997.03 117.296 998.95 120.752C1001.06 124.208 1002.79 128.432 1004.13 133.424C1005.67 138.224 1006.44 143.504 1006.44 149.264C1006.44 167.888 999.622 182.672 985.99 193.616C972.55 204.56 954.982 210.032 933.286 210.032Z" fill="#EFEFEF"/>
</svg>
