<svg id="Layer_1" data-name="Layer 1" xmlns="http://www.w3.org/2000/svg" viewBox="0 0 1080 398"><defs><style>.cls-1{fill:#7f181b;}</style></defs><path class="cls-1" d="M90.7,315.31q0,30.1-12.77,45T39.4,375.28q-3.37,0-7.83-.36c-3-.24-6.23-.61-9.75-1.09l-.25-29.62h13q10.35,0,14.33-8.55t4-40.58V24.6H90.7Z"/><path class="cls-1" d="M259.53,375.4q-56.85,0-79.48-22.16t-22.64-77.79V215.23q0-55.86,22.52-78T259.05,115h17.58q56.85,0,79.48,22.16t22.64,78v60.22q0,55.88-22.52,77.91t-79.12,22ZM340,267V223.66q0-47.92-12.17-61t-51.18-13.13H259.05q-38.78,0-50.7,13t-11.92,61.17V267q0,48.41,12,61.41t50.58,13h17.58q38.79,0,51.06-13.25T340,267Z"/><path class="cls-1" d="M491.72,315.31q0,30.1-12.77,45t-38.54,14.93q-3.37,0-7.83-.36c-3-.24-6.22-.61-9.75-1.09l-.24-29.62h13q10.37,0,14.33-8.55t4-40.58V24.6h37.82Z"/><path class="cls-1" d="M660.55,375.4q-56.85,0-79.48-22.16t-22.64-77.79V215.23q0-55.86,22.52-78T660.07,115h17.58q56.83,0,79.48,22.16t22.63,78v60.22q0,55.88-22.51,77.91t-79.12,22ZM741,267V223.66q0-47.92-12.16-61t-51.18-13.13H660.07q-38.79,0-50.7,13t-11.92,61.17V267q0,48.41,12,61.41t50.58,13h17.58q38.77,0,51.06-13.25T741,267Z"/><path class="cls-1" d="M938.73,375.4q-51.06,0-74.66-18.31t-26.5-59.48h39q2.16,24.33,15.41,34.07t47.21,9.76h17.58q38.07,0,50.58-13.37t12.52-52.62q0-8.43-.11-13.13c-.08-3.13-.21-6-.37-8.55l-182.32-.24v-38.3q0-55.86,22.64-78T939.21,115h17.58q56.6,0,79.12,22.16t22.52,78v60.22q0,55.64-22.64,77.79T956.31,375.4Zm80.68-164.74q0-35.64-12.52-48.41t-50.1-12.77H939.21q-37.8,0-50.58,12.77t-12.76,48.41v9.87h143.54Z"/></svg>